<svg xmlns="http://www.w3.org/2000/svg" xmlns:xlink="http://www.w3.org/1999/xlink"><symbol fill="none" viewBox="0 0 10 12" id="arrow-up" xmlns="http://www.w3.org/2000/svg"><path d="M4.16 11.472v-8.64L0 7.008V4.976L4.96 0l4.976 4.976v2.032L5.76 2.832v8.64h-1.6Z" fill="currentColor"/></symbol><symbol viewBox="0 0 9.667 5.666" id="chevron-down" xmlns="http://www.w3.org/2000/svg"><path d="M4.833 5.666a.83.83 0 0 1-.59-.244l-4-4A.834.834 0 0 1 1.424.245l3.41 3.41L8.244.245a.833.833 0 1 1 1.178 1.179l-4 4a.83.83 0 0 1-.589.243Z"/></symbol><symbol viewBox="0 0 119 116" fill="none" id="close" xmlns="http://www.w3.org/2000/svg"><path d="m1.603.356 116.749 115M117.1.356l-116.748 115" stroke="currentColor" stroke-width="2"/></symbol><symbol fill="none" viewBox="0 0 10 10" id="close-sm" xmlns="http://www.w3.org/2000/svg"><path d="m.833.833 8 8M8.833.833l-8 8" stroke="currentColor" stroke-width="1.667" stroke-linecap="round" stroke-linejoin="round"/></symbol><symbol fill="none" viewBox="0 0 16 16" id="copy" xmlns="http://www.w3.org/2000/svg"><g clip-path="url(#ea)" stroke="currentColor" stroke-width="1.5" stroke-linecap="round" stroke-linejoin="round"><path d="M13.333 6h-6C6.597 6 6 6.597 6 7.333v6c0 .737.597 1.334 1.333 1.334h6c.737 0 1.334-.597 1.334-1.334v-6c0-.736-.597-1.333-1.334-1.333Z"/><path d="M3.332 9.999h-.667a1.333 1.333 0 0 1-1.333-1.334v-6a1.333 1.333 0 0 1 1.333-1.333h6A1.333 1.333 0 0 1 10 2.665v.667"/></g><defs><clipPath id="ea"><path fill="#fff" d="M0 0h16v16H0z"/></clipPath></defs></symbol><symbol viewBox="0 0 34 34" id="craft" xmlns="http://www.w3.org/2000/svg"><path d="M30.4 0H3.6C1.6 0 0 1.6 0 3.6v26.8c0 2 1.6 3.6 3.6 3.6h26.8c1.9 0 3.6-1.6 3.6-3.6V3.6c0-2-1.6-3.6-3.6-3.6M16.9 20.7c1.1 0 2.3-.4 3.5-1.5L22 21c-1.7 1.4-3.6 2.1-5.5 2.1-3.8 0-6.2-2.5-5.6-6 .6-3.5 3.8-6 7.6-6s3.5.7 4.7 2L21 14.9c-.6-.8-1.7-1.4-2.9-1.4-2.3 0-4 1.5-4.4 3.6-.3 2.1 1 3.6 3.3 3.6"/></symbol><symbol viewBox="0 0 8.707 8.707" id="cross" xmlns="http://www.w3.org/2000/svg"><path style="stroke-width:0" d="M8 8.707 4.354 5.061.707 8.707 0 8l3.646-3.646L0 .707.707 0l3.647 3.646L8 0l.707.707-3.646 3.647L8.707 8 8 8.707z"/></symbol><symbol fill="none" viewBox="0 0 16 16" id="expand" xmlns="http://www.w3.org/2000/svg"><path d="M2.667 4A1.333 1.333 0 0 1 4 2.667h8A1.333 1.333 0 0 1 13.334 4v1.333A1.333 1.333 0 0 1 12 6.666H4a1.333 1.333 0 0 1-1.333-1.333V4ZM2.667 10.667A1.333 1.333 0 0 1 4 9.334h8a1.333 1.333 0 0 1 1.334 1.333V12A1.333 1.333 0 0 1 12 13.334H4A1.333 1.333 0 0 1 2.667 12v-1.333Z" stroke="currentColor" stroke-width="1.5" stroke-linecap="round" stroke-linejoin="round"/></symbol><symbol viewBox="0 0 16 16" id="external" xmlns="http://www.w3.org/2000/svg"><path class="ist0" d="M12 8c-.4 0-.7.3-.7.7v4c0 .2 0 .3-.2.5s-.3.2-.5.2H3.3c-.2 0-.3 0-.5-.2s-.2-.3-.2-.5V5.4c0-.2 0-.3.2-.5.1-.1.3-.2.5-.2h4c.4 0 .7-.3.7-.7s-.3-.7-.7-.7h-4c-.5 0-1 .2-1.4.6-.4.4-.6.9-.6 1.4v7.3c0 .5.2 1 .6 1.4.4.4.9.6 1.4.6h7.3c.5 0 1-.2 1.4-.6s.6-.9.6-1.4v-4c0-.4-.3-.7-.7-.7Z"/><path class="ist0" d="M14.6 1.8c0-.2-.2-.3-.4-.4H9.9c-.4 0-.7.3-.7.7s.3.7.7.7h2.4L6.1 9c-.3.3-.3.7 0 .9s.3.2.5.2.3 0 .5-.2l6.2-6.2v2.4c0 .4.3.7.7.7s.7-.3.7-.7V1.8Z"/></symbol><symbol viewBox="0 0 20 20" fill="none" id="instagram" xmlns="http://www.w3.org/2000/svg"><g clip-path="url(#ja)" stroke="currentColor" stroke-linecap="round" stroke-linejoin="round"><path d="M3.333 6.666a3.333 3.333 0 0 1 3.334-3.333h6.667a3.333 3.333 0 0 1 3.333 3.333v6.667a3.333 3.333 0 0 1-3.334 3.333H6.668a3.333 3.333 0 0 1-3.333-3.333V6.666Z"/><path d="M7.5 10a2.5 2.5 0 1 0 5 0 2.5 2.5 0 0 0-5 0ZM13.75 6.25v.008"/></g><defs><clipPath id="ja"><path fill="#fff" d="M0 0h20v20H0z"/></clipPath></defs></symbol><symbol viewBox="0 0 20 20" fill="none" id="linkedin" xmlns="http://www.w3.org/2000/svg"><path d="M3.333 6.666a3.333 3.333 0 0 1 3.334-3.333h6.667a3.333 3.333 0 0 1 3.333 3.333v6.667a3.333 3.333 0 0 1-3.334 3.333H6.668a3.333 3.333 0 0 1-3.333-3.333V6.666ZM7.5 8.75v4.375M7.5 6.875v.008M10 13.125V8.75" stroke="currentColor" stroke-linecap="round" stroke-linejoin="round"/><path d="M13.125 13.125v-2.5a1.875 1.875 0 1 0-3.75 0" stroke="currentColor" stroke-linecap="round" stroke-linejoin="round"/></symbol><symbol viewBox="0 0 121 82" id="logo" xmlns="http://www.w3.org/2000/svg"><path d="M92.9 10 89.7.2H76.9l9.6 30L92.9 10Z"/><path d="M106.1 0 86.7 60.4 66.8 0h-12L34.9 60.4 15.4 0H0l28.3 82h12.3l19.9-58.3L80.4 82h12.3L121 0h-14.9Z"/><path d="M41.4 9.8 38.3 0H25.5l9.6 30 6.4-20.2Z"/></symbol><symbol viewBox="0 0 252 16" id="logotype" xmlns="http://www.w3.org/2000/svg"><path d="M229.8 0h-.9v16h.9V0ZM247.9 3.4l-.5-1.5h-1.9l1.4 4.4.9-3Z"/><path d="m249.8 1.9-2.8 8.9-2.9-8.9h-1.8l-2.9 8.9-2.8-8.9h-2.2l4.1 12.1h1.8l2.9-8.6 2.9 8.6h1.8L252 1.9h-2.2Z"/><path d="m240.4 3.4-.5-1.5H238l1.4 4.4.9-3ZM11.4 8.5l-2.3-7h-2l-2.3 7-2.2-7H0l3.8 11.2h2l2.3-6.8 2.3 6.8h2l3.8-11.2h-2.6l-2.2 7ZM23.7 1.3C20.5 1.3 18 3.8 18 7c0 3.3 2.4 5.7 5.7 5.7s5.7-2.5 5.7-5.7c0-3.3-2.4-5.7-5.7-5.7Zm3.1 5.8c0 1.9-1.3 3.4-3.1 3.4s-3.2-1.4-3.2-3.4c0-1.9 1.3-3.4 3.1-3.4s3.2 1.5 3.2 3.4ZM35.1 1.5h-2.4v11.1h7.8v-2.3h-5.4V1.5ZM46.3 9l-2.9-7.4h-2.7l4.5 11.2h2l4.5-11.2H49L46.1 9ZM57 8.2h5.1V5.9H57V3.8h5.8V1.5h-8.2v11.1h8.3v-2.3H57V8.2ZM75.1 5.2c0-1-.3-1.9-.9-2.5-.7-.7-1.8-1.1-3.2-1.1h-4.9v11.1h2.4V9.1h1.8l2.5 3.6h2.9l-2.9-4.1C74.2 8 75 6.8 75 5.3Zm-6.5-1.3h2.3c.8 0 1.8.2 1.8 1.4 0 .9-.7 1.4-1.8 1.4h-2.3V3.9ZM81 1.5h-2.4v11.1H81V1.5ZM92 8.1l-5-6.6h-2.1v11.1h2.4V5.8l5.2 6.8h2V1.5h-2.4v6.6ZM100.7 8.2h5.1V5.9h-5.1V3.8h5.8V1.5h-8.2v11.1h8.3v-2.3h-5.9V8.2ZM121.5 10.1l-2.8-8.6h-1.1l-2.8 8.6-3-8.6h-1.5l4 11.2h1.1l2.8-8.4 2.8 8.4h1.1l4-11.2h-1.5l-3 8.6ZM133.7 1.3c-3.1 0-5.5 2.5-5.5 5.7 0 3.3 2.3 5.7 5.5 5.7s5.5-2.5 5.5-5.7c0-3.3-2.3-5.7-5.5-5.7Zm4.1 5.8c0 2.5-1.7 4.4-4 4.4s-4.1-1.9-4.1-4.4c0-2.5 1.7-4.4 4-4.4s4.1 1.9 4.1 4.4ZM151.5 4.9c0-.8-.3-1.6-.9-2.2-.7-.7-1.8-1.1-3.1-1.1h-4.6v11.1h1.4V8.4h2.9l3.3 4.3h1.8l-3.5-4.6c1.7-.4 2.7-1.6 2.7-3.2Zm-7.2 2v-4h3.2c1.6 0 2.6.7 2.6 2s-1 2.1-2.7 2.1h-3.1ZM156.7 1.5h-1.4v11.1h7.4v-1.4h-6V1.5ZM169.8 1.5h-3.7v11.1h3.7c3.3 0 5.8-2.3 5.8-5.5s-2.4-5.5-5.8-5.5Zm4.4 5.6c0 2.5-1.8 4.2-4.3 4.2h-2.3V2.9h2.3c2.6 0 4.3 1.7 4.3 4.2ZM189 10.1l-2.8-8.6h-1.1l-2.8 8.6-3-8.6h-1.5l4 11.2h1.1l2.8-8.4 2.8 8.4h1.1l4-11.2h-1.5l-3 8.6ZM198.2 1.5h-1.4v11.1h1.4V1.5ZM206.2 1.5h-3.7v11.1h3.7c3.3 0 5.8-2.3 5.8-5.5s-2.4-5.5-5.8-5.5Zm4.3 5.6c0 2.5-1.8 4.2-4.3 4.2h-2.3V2.9h2.3c2.5 0 4.3 1.8 4.3 4.2ZM217.1 7.7h5.9V6.3h-5.9V2.9h6.5V1.5h-7.9v11.1h8v-1.4h-6.6V7.7Z"/></symbol><symbol viewBox="0 0 176 9" id="logotype-only" xmlns="http://www.w3.org/2000/svg"><path d="M8.972 5.648 7.176.118H5.612l-1.796 5.53L2.074.141H0l2.987 8.778H4.57l1.8-5.354 1.8 5.354h1.596L12.741.14h-2.027L8.973 5.648ZM18.648 0c-2.513 0-4.482 1.976-4.482 4.5v.023c0 2.552 1.918 4.477 4.46 4.477 2.543 0 4.483-1.977 4.483-4.5v-.023C23.11 1.925 21.191 0 18.65 0h-.001Zm2.465 4.5v.023c0 1.496-1.06 2.625-2.466 2.625-1.406 0-2.488-1.138-2.488-2.648v-.023c0-1.504 1.06-2.636 2.465-2.636 1.404 0 2.488 1.143 2.488 2.659ZM27.629.14h-1.925v8.72h6.165V7.033h-4.24V.14ZM36.456 5.996 34.198.14h-2.12l3.564 8.778h1.595L40.788.14h-2.085l-2.247 5.855ZM44.85 5.37h4.044V3.561h-4.045V1.946h4.563V.141h-6.487v8.72h6.546V7.055h-4.622V5.369ZM59.129 3.012v-.023c0-.77-.256-1.444-.745-1.954C57.796.449 56.93.14 55.88.14h-3.85v8.72h1.926V6h1.39l1.982 2.86h2.306l-2.266-3.232c1.125-.45 1.762-1.389 1.762-2.617h-.002ZM53.956 1.97h1.808c.647 0 1.416.19 1.416 1.1v.023c0 .688-.538 1.114-1.404 1.114h-1.82V1.97ZM63.754.14h-1.926v8.72h1.926V.14ZM72.42 5.316 68.476.141h-1.691v8.72h1.902V3.52l4.07 5.34h1.565V.14H72.42v5.175ZM79.2 5.37h4.043V3.561H79.2V1.946h4.563V.141h-6.488v8.72h6.545V7.055H79.2V5.369ZM95.609 6.899 93.422.118h-.83l-2.186 6.78L88.059.142H86.85l3.11 8.778h.845l2.179-6.575 2.18 6.575h.845L99.118.14h-1.164L95.61 6.899ZM105.226 0c-2.423 0-4.321 1.976-4.321 4.5v.023c0 2.552 1.847 4.477 4.298 4.477s4.322-1.977 4.322-4.5v-.023c0-2.552-1.848-4.477-4.299-4.477Zm3.169 4.5v.023c0 1.944-1.363 3.41-3.169 3.41s-3.191-1.508-3.191-3.433v-.023c0-1.944 1.362-3.41 3.168-3.41s3.192 1.507 3.192 3.433ZM119.22 2.755v-.023a2.45 2.45 0 0 0-.685-1.706c-.56-.57-1.43-.885-2.45-.885h-3.642v8.72h1.106V5.462h2.261l2.569 3.399h1.402l-2.723-3.585c1.362-.323 2.16-1.242 2.16-2.521h.002Zm-5.669 1.64V1.221h2.5c1.292 0 2.062.573 2.062 1.534v.023c0 .982-.822 1.617-2.096 1.617h-2.466ZM123.268.14h-1.107v8.72h5.843V7.783h-4.736V.141ZM133.618.14h-2.938v8.72h2.938c2.63 0 4.54-1.834 4.54-4.36v-.023c0-2.512-1.908-4.336-4.54-4.336Zm3.409 4.36v.023c0 1.918-1.402 3.258-3.41 3.258h-1.833V1.22h1.833c2.008 0 3.41 1.348 3.41 3.28V4.5ZM148.701 6.899 146.514.118h-.829l-2.187 6.78-2.345-6.757h-1.21l3.11 8.778h.844l2.179-6.575 2.181 6.575h.844L152.21.14h-1.162l-2.347 6.758ZM155.945.14h-1.107v8.72h1.107V.14ZM162.239.14H159.3v8.72h2.939c2.63 0 4.54-1.834 4.54-4.36v-.023c0-2.512-1.909-4.336-4.54-4.336Zm3.41 4.36v.023c0 1.918-1.402 3.258-3.41 3.258h-1.831V1.22h1.831c1.976 0 3.41 1.379 3.41 3.28V4.5ZM170.803 5.005h4.622V3.927h-4.622V1.22h5.14V.14h-6.246v8.72H176V7.782h-5.197V5.005Z"/></symbol><symbol fill="none" viewBox="0 0 11 2" id="minus" xmlns="http://www.w3.org/2000/svg"><path d="M.75.75h9.333" stroke="currentColor" stroke-width="1.5" stroke-linecap="round" stroke-linejoin="round"/></symbol><symbol fill="none" viewBox="0 0 11 11" id="plus" xmlns="http://www.w3.org/2000/svg"><path d="M.75 5.5h9.5M5.5.75v9.5" stroke="currentColor" stroke-width="1.5" stroke-linecap="round" stroke-linejoin="round"/></symbol><symbol fill="none" viewBox="0 0 20 20" id="sort" xmlns="http://www.w3.org/2000/svg"><path d="m6.668 7.501 3.333-3.333 3.334 3.333M13.335 12.5 10 15.833 6.668 12.5" stroke="currentColor" stroke-width="2" stroke-linecap="round" stroke-linejoin="round"/></symbol></svg>